<svg width="512" height="512" viewBox="36 36 440 440" xmlns="http://www.w3.org/2000/svg" xml:space="preserve" version="1.1">
 <g id="Layer_1">
  <title>Layer 1</title>
  <g id="svg_79">
   <path id="svg_1" d="m323.61081,391.47747c-6.15265,5.97998 -7.04822,6.07907 -12.94623,-0.61218c-8.25915,-9.36991 -16.26898,-18.95966 -24.37982,-28.46008c-0.52264,-0.61213 -0.84289,-1.45728 -1.98016,-1.48627c0.91724,6.70706 1.89929,13.37411 2.72833,20.06015c1.55475,12.53897 -0.49359,24.47806 -5.7937,35.96777c-4.69531,10.17874 -12.92078,15.34482 -23.61658,15.69656c-11.22397,0.36915 -20.57272,-4.40106 -26.19943,-14.4465c-7.88153,-14.07095 -9.21991,-29.30908 -6.64731,-45.01779c0.58194,-3.55344 1.30985,-7.08298 1.12546,-11.16904c-5.08984,5.81229 -10.17899,11.62522 -15.26981,17.43668c-3.73062,4.2587 -7.061,8.97186 -11.27276,12.68518c-11.39853,10.0495 -22.27496,21.0347 -37.68851,25.09869c-13.72025,3.6175 -27.37616,4.76361 -40.13174,-2.99215c-11.12882,-6.7667 -16.70356,-18.06095 -14.71979,-28.37622c2.32724,-12.10141 11.13025,-20.94974 24.3277,-23.37702c14.81466,-2.7247 28.37088,1.0651 40.67825,9.51691c1.55093,1.06506 3.8609,2.41064 2.24271,4.74994c-1.52311,2.20184 -3.90741,4.32217 -6.75293,2.50284c-4.41831,-2.82489 -10.10086,-3.70551 -13.25742,-8.48517c-0.77161,-1.16837 -2.13898,-1.44541 -3.09961,-0.90131c-3.97189,2.24948 -8.14334,0.88855 -12.22198,0.93244c-4.99488,0.0538 -9.5738,1.53033 -13.65934,4.21517c-11.05853,7.26725 -11.76876,19.90577 -1.78942,28.59827c7.39129,6.4383 16.27926,7.53009 25.39062,6.40308c11.27365,-1.39447 21.47058,-5.75452 30.29941,-13.13153c2.47308,-2.06644 2.83636,-3.80853 0.52991,-6.15982c-1.27491,-1.29969 -2.28022,-2.86454 -3.40098,-4.31458c-1.47439,-1.90747 -1.38159,-3.67502 0.52698,-5.2309c1.78967,-1.45895 3.65341,-2.46737 5.77597,-0.57077c0.61985,0.5539 1.21616,1.13843 1.78391,1.74564c5.33835,5.7095 5.44525,5.80692 10.51993,-0.03003c16.81988,-19.34634 34.52139,-38.05075 45.13516,-61.94064c2.99933,-6.75107 4.74673,-13.74457 4.56744,-21.51779c-3.63898,5.79773 -7.1185,11.70318 -10.94796,17.37222c-9.92475,14.69241 -21.81025,27.29453 -38.12385,35.09946c-6.03588,2.88772 -12.36151,3.90609 -18.9544,3.453c-8.17203,-0.56165 -14.92597,-7.77335 -15.25583,-16.39755c-0.23261,-6.08087 1.00931,-11.85547 3.80136,-17.36057c8.75427,-17.2608 23.38236,-28.7893 38.57245,-39.75571c4.70422,-3.39623 9.6932,-6.39807 14.46567,-9.90887c-8.55515,1.79404 -17.13452,3.25394 -25.06263,7.58121c-17.3453,9.4675 -29.96988,23.32486 -40.16342,40.06772c-9.97949,16.39135 -23.54284,28.98541 -42.85699,33.72177c-13.82752,3.39087 -26.60272,1.6813 -36.50681,-9.72229c-7.53561,-8.67655 -9.02957,-18.67908 -5.2373,-29.43006c0.70239,-1.99127 1.29886,-4.97049 4.74914,-3.52935c2.74448,1.1463 5.58268,1.8702 4.23899,6.29831c-6.37281,21.00115 13.18997,31.56887 29.44943,26.94638c14.53201,-4.13141 26.11078,-12.31009 34.70959,-24.63791c5.68277,-8.14719 10.47846,-16.87897 17.45783,-25.88315c-4.14163,0.9209 -6.84458,1.44955 -9.50971,2.12707c-11.05313,2.80985 -22.08279,2.63862 -33.12725,-0.06304c-2.87702,-0.70377 -6.04725,-1.41102 -5.13923,-5.23975c0.89396,-3.76926 3.78385,-4.40872 7.47257,-3.59448c15.69263,3.46396 37.37594,-0.47428 48.71707,-8.70166c-2.39566,-1.88996 -5.37637,-1.69794 -8.03723,-2.12525c-7.13037,-1.14511 -12.81769,-6.39758 -20.17853,-6.79016c-1.16434,-0.06213 -2.36755,-1.23553 -2.32324,-2.34537c0.18799,-4.70935 -3.45014,-5.02969 -6.53232,-6.09942c-10.53375,-3.65598 -26.42194,-12.68839 -31.4237,-18.03235c-4.49286,2.40628 -9.04734,4.86807 -12.85184,9.37479c3.36319,2.36526 6.33633,4.75051 4.28854,9.14495c-1.01565,2.17951 -2.24927,4.47785 -4.89319,4.42298c-3.34991,-0.06952 -4.259,-3.22043 -6.22302,-5.547c0.30451,1.97549 0.77029,3.94263 0.87332,5.92856c0.133,2.56274 -1.16846,4.76279 -3.42364,5.61462c-2.38065,0.89923 -3.41434,-1.52801 -4.478,-3.11578c-4.59079,-6.85257 -2.91162,-15.43506 4.06244,-22.05304c3.84656,-3.65015 8.29098,-6.52329 13.16656,-9.88666c-7.18908,-5.51443 -11.82385,-12.38522 -16.13318,-19.48959c-7.67227,-12.6485 -7.74227,-28.92835 -0.25421,-38.68964c7.68348,-10.01602 22.26993,-14.29687 35.69132,-10.75418c22.42511,5.91925 37.42035,20.78986 48.93695,40.02307c12.2178,20.40427 38.29855,37.67343 61.91635,40.84345c-15.41693,-9.42218 -29.9498,-19.20157 -42.12356,-32.0539c-5.18876,-5.47793 -9.50962,-11.5097 -12.93558,-18.2811c-3.41635,-6.75234 -3.60974,-13.83914 -2.82691,-20.98352c0.78067,-7.12451 7.6037,-12.43566 15.51209,-13.19503c8.54428,-0.82044 16.21255,1.68124 23.25891,6.05474c17.30463,10.74064 29.36572,26.34614 39.58902,43.56965c1.58929,2.67752 3.07788,5.41479 4.90546,8.64056c0.30242,-17.03409 -7.39606,-30.35211 -16.02396,-43.30151c-10.74402,-16.12552 -22.96457,-31.07334 -36.42535,-44.99215c-2.60831,-2.69706 -2.99708,-4.75401 -0.26563,-7.56788c2.9892,-3.07938 5.49594,-2.50224 7.99313,0.36409c8.31437,9.54341 16.59815,19.11345 24.89099,28.67558c0.5224,0.60239 0.8281,1.46671 2.35526,1.47838c-0.84454,-5.71854 -1.84204,-11.34848 -2.48044,-17.01887c-1.5321,-13.60856 -0.67071,-26.89687 5.25598,-39.57763c10.14215,-21.69999 35.12494,-24.33323 48.99244,-4.96591c4.64593,6.48856 6.68371,14.05791 7.90087,21.87317c2.03724,13.08014 -0.61633,25.83287 -2.57464,38.6386c-0.09571,0.62597 -0.18292,1.25323 -0.37879,2.59936c3.42548,-2.05556 5.03424,-4.99509 7.10334,-7.36925c6.12689,-7.03036 11.85101,-14.41627 18.0805,-21.35075c2.99152,-3.33005 5.10272,-8.35278 11.53235,-6.91507c1.56158,0.34918 3.87531,-2.66484 6.15356,-4.36386c-3.05419,-4.07715 -0.40307,-6.07233 3.03473,-8.16666c13.38672,-8.15521 27.61219,-13.2839 43.51844,-12.20648c9.99725,0.67717 18.62103,4.44482 25.58044,11.96668c13.11621,14.17628 6.71698,35.00747 -8.88983,42.29837c-15.5191,7.24989 -42.28186,2.23542 -54.16815,-10.14347c-1.59802,-1.66424 -2.56995,-3.23532 -0.1958,-4.9127c2.06219,-1.45693 2.74408,-6.09227 6.92486,-2.75789c7.80884,6.22797 16.46912,10.75261 26.58832,11.73363c6.65448,0.64512 12.97253,-0.79877 18.60657,-4.41907c11.57202,-7.4359 10.27331,-22.70671 -2.49884,-30.11905c-6.7807,-3.9352 -14.02069,-4.53951 -21.71363,-3.48988c-12.04242,1.64305 -22.52215,6.63885 -32.25592,13.46907c0.21119,2.91877 2.56281,4.06797 3.84949,5.92364c1.28198,1.84874 3.56433,3.59665 0.73938,5.8994c-2.43469,1.98453 -4.97345,2.81032 -7.48041,0.06499c-1.33264,-1.45943 -2.63153,-2.94977 -4.15948,-4.66649c-4.78119,3.43152 -8.07843,8.0265 -11.76679,12.19513c-14.15484,15.99808 -27.15918,32.81042 -37.83819,51.42114c-4.66223,8.12488 -6.25336,16.66544 -6.19989,26.07434c3.17676,-4.83487 6.23865,-9.75006 9.55194,-14.4895c9.92468,-14.19653 21.4444,-26.78247 36.73675,-35.41104c5.44764,-3.07376 11.25538,-4.93213 17.62287,-4.73236c12.06653,0.3786 19.59283,9.26718 18.29278,21.2334c-0.9682,8.9118 -4.48577,16.65738 -9.81006,23.67053c-11.91204,15.69061 -27.64404,26.81937 -44.29364,36.82639c-1.4154,0.85073 -2.89312,1.59793 -4.06256,3.28875c6.34833,-1.83911 12.92633,-3.1203 19.00214,-5.62143c18.53906,-7.63177 33.36639,-19.79538 43.78735,-37.17108c9.34998,-15.58999 21.04114,-28.79498 38.53406,-35.61438c8.66113,-3.37646 17.60199,-5.24274 26.88782,-3.41665c20.63696,4.05834 30.27893,23.10501 22.31915,43.91296c-0.8902,2.32693 -2.01111,4.57275 -3.1319,6.80249c-1.48107,2.94644 -3.45147,4.211 -6.84515,2.42227c-3.34052,-1.76077 -2.88342,-3.76221 -1.40198,-6.51883c2.54676,-4.73901 4.04883,-9.91803 4.38282,-15.2554c0.71026,-11.34976 -9.08539,-21.69644 -20.59186,-22.00778c-18.29315,-0.49503 -31.71973,8.83148 -42.77106,22.08493c-7.54871,9.05285 -12.57642,19.95544 -21.08746,29.69647c8.02514,-1.42529 14.93884,-2.80951 21.90344,-3.85513c11.76605,-1.76639 22.77185,1.69784 33.6712,5.42596c3.67853,1.25827 3.1969,4.3165 2.09107,7.09348c-1.47223,3.69683 -4.22956,2.31305 -6.7099,1.30203c-20.67352,-8.42676 -40.36603,-4.82953 -61.1305,5.18399c4.86127,0.97061 8.38556,1.47104 11.79401,2.39761c6.8725,1.86811 13.992,3.27823 17.92645,10.45514c1.14277,2.08438 3.16632,2.72879 5.15766,0.08777c3.31109,-4.39127 8.62549,-4.39951 13.38605,-5.22745c1.9262,-0.33499 3.05041,1.76233 3.59747,3.60746c0.53729,1.81231 -0.66107,2.81723 -1.98944,3.60174c-1.53119,0.90424 -3.14313,1.67175 -5.62928,2.97537c10.09217,4.62574 19.15131,9.42682 27.74604,15.04361c1.06201,0.69403 2.2182,0.59861 3.33093,0.00772c5.34967,-2.84066 10.25336,-6.24746 13.77148,-11.29623c2.79157,-4.00635 2.43244,-7.85474 -1.07391,-11.25134c-2.94537,-2.85324 -6.0293,-5.56345 -9.02405,-8.31149c5.90375,-7.27411 7.19208,-7.39112 13.42945,-1.54819c2.82312,2.64459 5.10516,5.66748 6.85077,9.14627c3.18414,6.34595 2.471,12.13012 -1.87757,17.70782c-3.10992,3.98892 -6.62012,7.51422 -10.84326,10.25019c-3.15234,2.0422 -3.44959,3.92651 -0.74353,6.67712c8.21344,8.34866 14.04669,18.10684 16.99463,29.52808c3.87927,15.02954 -4.06104,30.96756 -18.17755,34.09423c-9.86432,2.18482 -20.15277,2.52472 -30.05091,-1.12722c-5.50616,-2.0315 -10.45819,-5.12894 -15.58087,-7.90518c-2.42352,-1.31345 -3.77783,-3.20224 -3.04175,-6.6149c-5.62304,1.65292 -8.30029,-1.77637 -10.67675,-5.06879c-6.23743,-8.64172 -11.8924,-17.7157 -18.33686,-26.19376c-13.591,-17.87994 -31.88934,-28.35019 -53.7547,-32.82245c-0.45221,-0.09253 -0.95959,0.08512 -2.68646,0.27015c6.211,3.92739 11.70075,7.13668 16.86615,10.81805c9.66535,6.88849 18.81799,14.33163 27.01984,22.91876c7.27594,7.61777 12.72131,16.24411 14.55896,26.81275c2.55249,14.68023 -6.92981,24.34857 -21.64991,22.61291c-16.80749,-1.98172 -28.33874,-12.46039 -39.25262,-23.83575c-9.02521,-9.4068 -16.00024,-20.37815 -22.62207,-32.5119c0.26367,12.48092 4.57971,22.77673 10.21692,32.76763c9.56964,16.96051 22.32678,31.49204 34.66821,46.35428c3.82721,4.60892 7.66809,9.20646 11.66138,14.09455c0.15863,0.28527 0.18707,0.25671 0.18707,0.25671m-139.02038,-130.95999c0,0 0.01812,0.03992 0.44348,-0.5329c3.25561,-4.07312 8.71182,-2.51388 13.5484,-5.29361c-16.14383,-1.98257 -31.28561,-3.27185 -45.94186,2.89554c7.60888,1.32544 7.60888,1.32544 5.67718,6.63702c9.76981,3.53708 29.38464,3.07026 35.83624,-1.01223c-3.38635,-0.74433 -6.9425,-0.2663 -9.56344,-2.69382m-26.26084,-34.33991c-6.04214,-8.74481 -11.88891,-17.63293 -18.17349,-26.19989c-8.84174,-12.05288 -20.20438,-20.66385 -35.164,-23.67419c-14.45401,-2.90869 -32.79758,5.34488 -27.02774,26.20438c3.08935,11.16897 10.30304,19.9797 19.15091,27.39468c1.46487,1.22766 2.87204,1.02609 4.60483,0.37176c17.66146,-6.669 35.60046,-9.43429 54.08654,-3.46981c0.78385,0.2529 1.60562,0.49456 2.52295,-0.62693m249.03018,65.7388c-16.20153,5.62357 -32.46527,7.33841 -48.8352,1.37671c-0.11292,-2.43869 2.66223,-3.80871 0.64581,-6.31564c-1.83093,2.1141 -3.57928,4.13275 -5.31183,6.13321c3.19525,4.73471 6.77497,9.55463 9.84162,14.6814c6.92022,11.5689 14.93951,21.91827 27.02606,28.69143c8.82074,4.94296 17.97687,7.90039 28.10217,6.60227c9.85553,-1.26358 16.48627,-8.99143 16.43512,-18.84436c-0.06146,-11.85028 -6.89666,-20.50861 -13.89618,-29.09c-3.6203,-4.43854 -7.62286,-6.93698 -14.00757,-3.23502m-133.49194,-138.7154c1.80914,-5.5743 2.71594,-11.35314 3.11316,-17.14438c0.88666,-12.92775 0.50415,-25.6865 -7.42645,-36.88741c-8.9776,-12.67963 -21.56796,-7.778 -27.59952,0.25263c-1.88666,2.51193 -3.2359,5.38034 -4.29889,8.41035c-5.66623,16.1507 -3.16528,32.14803 0.77997,48.1106c0.30408,1.23034 0.50143,3.02852 2.46673,3.33863c1.65436,-4.76924 3.09336,-9.54777 4.97043,-14.1475c1.79206,-4.39133 4.94199,-7.58955 9.96146,-8.02791c4.85062,-0.42361 7.5687,2.95763 10.0126,6.38034c1.94519,2.72432 3.04608,5.91939 3.85572,9.15302c0.53393,2.1324 0.60833,4.39767 2.47436,6.70654c0.60755,-2.23174 1.0401,-3.82065 1.69043,-6.14491m-35.3978,256.80378c1.47626,2.20856 2.72742,4.61579 4.46939,6.58988c6.19626,7.02188 16.33796,8.35696 22.83814,3.07577c3.93927,-3.2005 6.89606,-7.11267 8.56891,-12.02991c5.87537,-17.26977 2.42871,-33.9631 -2.71662,-51.97704c-2.3659,6.34555 -3.25714,11.7846 -6.3009,16.41406c-5.84558,8.89099 -13.42041,8.8956 -19.24075,-0.06818c-2.82465,-4.35022 -4.21381,-9.24921 -5.94556,-14.20602c-6.43674,16.9721 -8.60614,34.05264 -1.67261,52.20144m77.41153,-96.38198c-1.35882,5.37664 -5.32257,7.59014 -11.85455,6.75421c-4.21228,-0.53907 -7.95605,-2.57111 -12.75903,-4.22751c2.95184,3.55145 5.10931,6.52527 7.64618,9.12951c8.0462,8.25968 16.40252,16.16346 28.04205,19.15796c9.69342,2.49387 15.51801,-2.54776 13.12463,-12.24533c-3.69513,-14.97204 -14.87249,-24.36053 -26.49463,-33.23599c0.94233,4.69882 2.94086,9.00012 2.29535,14.66715m0.02246,-109.72062c1.115,5.6463 -1.00158,10.88556 -3.06469,17.55686c3.14129,-2.59635 5.13952,-4.06778 6.93036,-5.75888c8.39459,-7.92679 16.69006,-15.99222 19.85821,-27.62244c1.08686,-3.99011 2.09564,-8.45691 -1.08966,-11.89771c-3.37811,-3.64907 -7.8883,-2.73831 -12.19354,-1.68954c-11.65216,2.83853 -19.50385,11.0939 -27.30628,19.33243c-1.93164,2.03958 -4.45727,3.8345 -5.39196,7.3183c3.90875,-0.97779 7.22033,-2.12094 10.62426,-2.5802c4.54194,-0.61283 9.13678,-0.64774 11.6333,5.34118m-132.41265,107.9928c-5.3992,6.38568 -10.56852,12.92063 -12.24271,21.41559c-1.54129,7.82065 3.19946,13.25409 10.90509,11.67322c16.26535,-3.33698 27.09128,-14.30246 37.70526,-27.88791c-5.47153,1.22229 -9.11023,3.48804 -13.33902,3.5917c-8.55386,0.20966 -12.45682,-4.25201 -10.64148,-12.53772c0.67795,-3.09448 1.68051,-6.11789 2.625,-9.49511c-5.40539,4.0101 -10.18533,8.12137 -15.01214,13.24023m25.087,-113.32928c2.9765,0.71978 5.95301,1.43954 9.96417,2.40951c-7.36468,-10.81189 -15.78945,-18.79205 -26.57669,-24.18466c-3.75335,-1.87631 -7.67627,-3.19678 -11.94665,-3.15457c-6.66928,0.06595 -9.85755,3.66681 -8.69843,10.29843c2.9137,16.67029 15.08463,26.41647 27.10776,36.28662c-1.14654,-4.61615 -3.07699,-8.88348 -3.05994,-13.62787c0.01847,-5.14654 2.2536,-7.70508 7.36969,-8.20053c1.64304,-0.15915 3.31916,0.02307 5.84009,0.17307m187.8909,78.55523c-6.16278,-3.31573 -12.50549,-6.21862 -19.00482,-8.83474c-3.9588,-1.59357 -7.13525,-2.41941 -10.69708,1.26855c-2.99762,3.10367 -7.43677,4.31235 -11.70575,5.26407c-3.63642,0.8107 -7.28736,1.55618 -11.77149,2.50891c19.60419,9.49445 38.5752,14.20004 59.08362,4.87164c-1.28406,-3.0188 -3.45184,-3.66183 -5.90448,-5.07843m-276.1488,-42.36569c-3.0781,0.5405 -6.14936,1.0997 -8.92053,2.99896c0.71081,2.35663 2.55029,3.34186 4.21389,4.24729c6.40882,3.48809 12.74051,7.12008 19.58286,9.78244c3.25189,1.26526 5.78314,1.28995 8.54156,-1.21802c4.03473,-3.66837 9.22272,-5.1778 14.43085,-6.35675c3.48895,-0.7898 7.04291,-1.29248 11.74225,-2.13394c-16.41211,-6.87732 -31.87891,-11.73282 -49.59088,-7.31998m133.82989,-82.82295c-2.10562,4.24667 -2.6748,8.84581 -3.3475,13.472c-1.97574,13.58694 0.73932,26.81119 2.79517,40.09299c0.39462,2.54965 0.50765,5.2359 2.57611,7.73175c0.49942,-1.43845 0.94339,-2.49271 1.23355,-3.58771c2.99951,-11.31781 4.43103,-22.88751 4.50812,-34.54401c0.04595,-6.94119 -0.03974,-14.05337 -2.5243,-20.70276c-0.65625,-1.75634 -0.84344,-5.90696 -5.24115,-2.46226m7.94239,190.26598c-0.54761,-12.6482 -2.24457,-25.10923 -6.08652,-37.34949c-1.66364,4.9432 -2.8346,9.89422 -3.7796,14.88803c-2.51685,13.30038 -3.90039,26.62839 -0.39841,39.9971c0.62527,2.38696 0.8728,5.77008 3.62393,5.91321c3.21286,0.16717 3.48215,-3.45789 4.28391,-5.879c1.79705,-5.427 1.66198,-11.14532 2.35669,-17.56985m-54.25229,-132.76697c-1.87165,1.74276 -0.44907,3.405 0.24032,4.96713c2.31052,5.23553 5.70645,9.73697 9.89325,13.59924c7.27243,6.70874 14.98053,12.80896 24.353,16.58097c-5.7731,-12.79154 -13.83261,-23.67951 -25.27045,-31.83924c-2.54284,-1.81405 -5.24066,-3.55475 -9.21612,-3.3081m19.53738,73.3511c-9.03253,7.35196 -18.18014,14.61801 -21.12518,27.1557c10.83575,-0.00198 31.71283,-21.71417 35.15771,-35.35251c-5.19299,1.94947 -9.20453,5.08631 -14.03253,8.19681m74.43512,26.67532c1.78979,0.66617 3.45905,1.13834 2.86157,-1.85949c-0.4259,-2.13648 -1.25677,-4.09555 -2.40252,-5.96033c-7.37,-11.99466 -18.41718,-19.79654 -30.30304,-26.64291c-0.54798,-0.31562 -1.24964,-0.51737 -2.1753,0.5809c7.7522,13.59979 15.80664,27.02835 32.01929,33.88183m-27.21857,-74.49478c-1.432,2.73459 -3.51904,5.1858 -3.85119,8.52768c11.29516,-3.17102 35.02447,-24.1044 33.45294,-34.56552c-13.89606,3.86139 -22.29407,13.78565 -29.60175,26.03784m72.5398,27.85791c-9.78839,0.34958 -19.57678,0.69913 -29.36517,1.04868c12.92993,3.98318 25.71472,4.24789 38.31829,-0.6236c-2.68872,-1.76181 -5.40179,0.0701 -8.95312,-0.42508m0.92023,-6.55304c0.80175,0 1.60357,0 2.40533,0c-11.56274,-3.66 -23.14703,-3.22888 -34.75037,0.03528c10.52582,0 21.05158,0 32.34504,-0.03528z" fill="#000000"/>
   <path id="svg_6" d="m153.32437,98.4706c11.65845,2.25109 21.06394,8.42977 30.33963,14.52254c8.75101,5.74817 8.69144,11.79909 0.92157,18.72904c-1.75491,1.5652 -3.56109,1.78071 -5.45266,0.56547c-1.94632,-1.25044 -2.73596,-3.17194 -1.3169,-5.1308c2.12641,-2.93524 2.08539,-5.14122 -0.78818,-7.67183c-1.32876,-1.17016 -1.67037,-3.46118 -2.46121,-5.24774c-7.94162,1.62786 -14.10641,-2.07414 -19.95428,-6.47354c-1.47214,-1.10751 -3.15958,-2.04561 -4.52725,-1.30089c-3.59043,1.95506 -7.13132,0.90726 -10.72568,0.58588c-9.23419,-0.82568 -20.87912,7.52399 -23.09876,16.55069c-1.95114,7.9348 3.97245,16.83874 12.99863,21.33534c5.46967,2.72482 10.59168,2.6185 16.24915,1.64833c3.30566,-0.56683 8.26013,-2.26219 9.00259,3.03197c0.67892,4.84129 -4.11368,4.86897 -7.46848,5.23526c-8.05102,0.87903 -16.03204,1.64166 -23.86148,-1.9467c-20.0794,-9.20268 -22.9646,-34.87483 -5.40335,-48.20935c10.72681,-8.14501 22.58597,-8.89429 35.54666,-6.22367z" fill="#000000"/>
   <path id="svg_7" d="m323.5712,391.52294c2.00732,-2.18741 3.96936,-4.4472 6.06293,-6.57773c1.54883,-1.57617 3.40332,-2.18768 5.33795,-0.6149c1.98645,1.615 2.2702,3.54035 0.8205,5.7175c-1.28333,1.92731 -2.49756,3.90061 -3.91126,6.11869c2.98596,2.48324 6.35034,4.46618 7.08484,8.62936c0.28186,1.59763 2.0329,1.87848 3.2807,1.35294c3.01709,-1.27066 5.42517,0.15524 8.04681,1.21527c12.23206,4.94592 24.1139,4.14251 35.35797,-2.81031c7.25574,-4.48663 10.54743,-11.30584 9.16034,-17.88739c-1.51025,-7.16543 -8.11523,-13.27285 -15.91192,-14.81912c-4.12171,-0.81738 -8.20697,-0.95581 -12.36237,-0.17694c-3.50805,0.65753 -5.84454,-0.75162 -6.47931,-4.43802c-0.63336,-3.67877 2.31397,-4.01989 4.61573,-4.63156c14.36084,-3.81616 30.57727,2.25614 37.16131,13.80988c7.37427,12.94034 2.99719,27.66757 -10.7171,36.55987c-10.28156,6.66654 -21.57056,6.94406 -33.18188,5.69345c-10.80506,-1.16375 -19.77247,-6.56103 -28.57831,-12.31176c-1.62214,-1.05936 -3.54969,-2.30259 -2.4408,-4.8039c0.69482,-1.56741 -0.26538,-2.08871 -1.34405,-2.64712c-2.95215,-1.52823 -3.37537,-3.85627 -2.04383,-7.06897c0.08136,-0.35471 0.05292,-0.32615 0.04175,-0.30924z" fill="#000000"/>
   <path id="svg_8" d="m203.6146,80.61417c7.73446,-12.83065 17.21725,-23.37191 30.79751,-29.50303c24.00821,-10.83901 49.92502,-3.49051 66.8339,18.89814c3.71563,4.91981 6.93322,10.17376 9.64099,15.74024c1.26397,2.59849 1.52667,4.7384 -1.39173,6.31232c-2.95337,1.59274 -4.55542,0.09552 -6.018,-2.36589c-6.09668,-10.26062 -13.5102,-19.38004 -23.318,-26.37356c-15.6156,-11.13482 -28.67468,-11.83549 -47.26184,-0.32752c-9.48312,5.8713 -16.71975,14.11592 -22.46176,23.73437c-1.68536,2.82317 -2.97552,8.01196 -7.86892,5.39977c-5.26307,-2.80953 -0.91886,-6.56897 0.14553,-9.88579c0.14981,-0.4668 0.47132,-0.87848 0.90232,-1.62905z" fill="#000000"/>
   <path id="svg_9" d="m264.62088,464.84142c-19.05868,5.17865 -48.99618,-11.32971 -52.15429,-22.82238c8.72763,-3.91871 11.46573,-2.91767 13.83557,5.40704c2.99212,-0.46545 5.44058,0.96594 8.03116,2.56042c11.76495,7.24146 24.15365,8.81379 37.12252,3.35169c2.65491,-1.1181 2.65949,-1.10718 7.45838,1.1264c-0.99506,-2.93384 -0.04541,-4.81231 2.30273,-6.32171c2.50598,-1.61084 5.04291,-3.35987 7.04328,-5.53058c3.76593,-4.08667 6.92315,-3.80951 10.55578,1.26831c-8.77405,10.83368 -20.17834,17.54388 -34.19513,20.96081z" fill="#000000"/>
   <path id="svg_12" d="m302.7255,425.58312c1.87481,-1.81561 3.26233,-4.21124 6.03253,-2.77099c2.67517,1.3908 1.37311,4.18493 1.99469,6.15393c2.19665,6.95758 -1.64105,7.82666 -6.69519,8.94104c-1.84656,0.4071 -3.09723,0.56799 -4.42743,-0.65338c-1.58228,-1.45282 -2.56323,-3.15357 -1.29413,-5.23908c1.28424,-2.11035 2.76105,-4.10358 4.38953,-6.43152z" fill="#000000"/>
   <path id="svg_13" d="m345.14676,381.04424c-2.68347,1.88703 -4.29852,0.81327 -5.66144,-1.27051c-1.28003,-1.95703 -1.0393,-3.7362 0.49762,-5.43954c2.40155,-2.66147 5.6698,-4.04285 8.65619,-5.81546c2.28565,-1.35675 4.76258,-2.03976 6.44318,0.95557c1.58722,2.8291 0.84192,5.06357 -1.97132,6.70044c-2.58587,1.50454 -5.11224,3.1112 -7.96423,4.8695z" fill="#000000"/>
   <path id="svg_14" d="m426.31339,223.27508c5.71411,0.39413 6.88098,2.39953 4.01312,6.76291c-1.71191,2.60473 -3.77258,5.0223 -5.93567,7.27517c-1.76446,1.83765 -4.03332,2.48053 -6.09723,0.32608c-1.81946,-1.89935 -2.21759,-4.04998 -0.24084,-6.15942c2.58337,-2.75687 4.49279,-6.17413 8.26062,-8.20474z" fill="#000000"/>
   <path id="svg_15" d="m159.38248,143.24793c3.25854,-2.51706 6.31003,-4.76396 9.41922,-6.92791c2.52515,-1.75744 4.79056,-0.92473 6.56335,1.16438c2.22013,2.6163 0.02521,4.31604 -1.73956,5.69983c-2.32669,1.82443 -4.82996,3.47284 -7.42065,4.90051c-4.5066,2.48346 -6.64579,1.03152 -6.82236,-4.83681z" fill="#000000"/>
   <path id="svg_16" d="m74.66352,302.67147c2.04895,-4.49951 5.32971,-7.55972 8.58892,-10.63525c1.6807,-1.58594 3.43744,-1.94022 5.24955,-0.20923c1.69363,1.61783 1.95685,3.56457 0.58859,5.3688c-2.29913,3.03168 -4.45889,6.3508 -7.36829,8.68924c-3.22674,2.59354 -5.80044,0.75663 -7.05877,-3.21356z" fill="#000000"/>
   <path id="svg_17" d="m311.47,105.25622c-0.44519,-1.31311 -0.84436,-2.23549 -1.03302,-3.19908c-0.39459,-2.01633 0.27997,-3.60863 2.22937,-4.44634c2.06171,-0.88591 3.49115,0.19333 4.66895,1.7354c2.22491,2.91312 3.63654,6.27191 5.1897,9.55576c0.98303,2.07829 0.89746,3.82571 -1.24488,5.09985c-2.17315,1.2924 -4.29437,1.09122 -5.68377,-0.98087c-1.55182,-2.31434 -2.67511,-4.91604 -4.12635,-7.76472z" fill="#000000"/>
   <path id="svg_18" d="m212.32645,438.16308c-2.13785,1.23565 -3.54504,0.47516 -4.51907,-1.09857c-2.01383,-3.25373 -3.95136,-6.55756 -5.82392,-9.89478c-1.0784,-1.92194 -0.41412,-3.55157 1.29041,-4.77093c1.52295,-1.08948 3.21069,-1.29474 4.5455,0.1333c3.09741,3.31372 5.38129,7.20373 7.01166,11.40716c0.72128,1.85962 -0.82303,3.04853 -2.50458,4.22382z" fill="#000000"/>
   <path id="svg_19" d="m409.40995,249.4909c-1.9325,1.03839 -3.52491,1.93417 -5.18116,2.69027c-2.07537,0.94736 -3.97442,0.5926 -5.23327,-1.37502c-1.43445,-2.24222 -0.6529,-4.24109 1.36993,-5.58896c2.61463,-1.74222 5.35407,-3.31601 8.13184,-4.78864c2.32629,-1.23334 4.5639,-1.04599 6.03534,1.43231c1.48748,2.50537 -0.25977,4.03092 -1.94727,5.44846c-0.88422,0.74273 -1.90478,1.32318 -3.17541,2.18158z" fill="#000000"/>
   <path id="svg_20" d="m198.00528,417.05584c-3.9284,-3.32291 -5.31177,-7.90305 -7.7157,-11.83527c-0.94192,-1.54077 -0.45056,-2.8692 0.92685,-3.9028c1.63593,-1.2276 3.41175,-1.60596 4.94324,-0.01266c3.15152,3.27859 5.52551,7.16882 6.63971,11.52227c0.81006,3.16508 -1.58169,4.3194 -4.7941,4.22846z" fill="#000000"/>
   <path id="svg_21" d="m201.58866,101.48745c-1.36692,3.5773 -2.62116,6.81576 -4.1012,9.94754c-1.12689,2.38455 -3.04401,3.62097 -5.65372,2.23074c-2.22989,-1.18788 -2.80841,-3.12025 -1.6907,-5.47027c1.20654,-2.53679 2.23291,-5.17587 3.63144,-7.60106c2.4725,-4.28742 5.11044,-4.0625 7.81418,0.89305z" fill="#000000"/>
   <path id="svg_22" d="m96.62479,289.42516c-5.24881,-3.08566 -5.49301,-4.78396 -1.20319,-7.96667c2.38361,-1.76849 4.98929,-3.27109 7.61377,-4.67053c1.94022,-1.03461 3.9245,-0.88675 5.19818,1.22903c1.22742,2.039 0.73581,3.84735 -1.15866,5.20252c-3.22021,2.30343 -6.24551,4.93212 -10.4501,6.20565z" fill="#000000"/>
   <path id="svg_23" d="m317.88614,416.74926c-2.25397,2.26892 -4.12823,1.57999 -5.88251,-0.08945c-1.57183,-1.49591 -1.51855,-3.26529 -0.48181,-4.98953c1.61859,-2.6918 3.17444,-5.45099 5.08795,-7.92566c1.35206,-1.74847 3.39789,-2.01318 5.34235,-0.64306c2.00299,1.41125 2.10217,3.09433 0.82446,5.15374c-1.65735,2.67136 -3.1156,5.46622 -4.89044,8.49396z" fill="#000000"/>
   <path id="svg_24" d="m122.14499,275.24072c-1.58871,0.6188 -2.8009,1.30248 -4.07443,1.44741c-1.81445,0.20652 -3.22885,-0.72494 -3.81717,-2.51788c-0.52988,-1.61481 0.0047,-3.02643 1.47919,-3.8284c3.34982,-1.82199 6.80404,-3.42941 10.56067,-4.25873c1.85452,-0.40939 3.3135,0.18158 4.1076,1.92722c0.98816,2.1723 -0.29053,3.50827 -2.01697,4.4107c-1.90374,0.99512 -3.92157,1.77204 -6.23889,2.81968z" fill="#000000"/>
   <path id="svg_40" d="m80.23868,276.46056c-1.63077,-3.43792 -0.40939,-5.77597 2.49554,-6.67636c3.08503,-0.95623 5.00529,1.59213 6.26819,3.84418c1.4852,2.64847 -0.81555,4.44907 -2.63397,5.73376c-3.06085,2.16233 -4.29953,-0.88992 -6.12976,-2.90158z" fill="#000000"/>
   <path id="svg_42" d="m184.58039,260.49828c-1.19107,2.57251 -3.70398,2.61771 -5.93857,2.80887c-3.28616,0.28107 -6.60431,0.25534 -9.90808,0.23532c-1.55747,-0.00943 -3.07569,-0.54284 -3.33313,-2.3381c-0.27381,-1.90952 0.78424,-3.33945 2.61285,-3.62006c3.746,-0.57489 7.5311,-0.92514 11.31076,-1.24005c2.60333,-0.21692 3.7031,1.78098 5.05326,3.93002c0.23107,0.28312 0.21295,0.2432 0.20291,0.224z" fill="#000000"/>
  </g>
 </g>
</svg>